<mxfile host="app.diagrams.net" modified="2022-11-10T01:52:37.212Z" agent="5.0 (Windows)" etag="_f7UoKGjeSpV0mJTAGi7" version="20.5.3" type="github" pages="14">
  <diagram id="3wvNWBAIeGwejzUp1oYs" name="Home">
    <mxGraphModel dx="1422" dy="752" grid="1" gridSize="10" guides="1" tooltips="1" connect="1" arrows="1" fold="1" page="1" pageScale="1" pageWidth="827" pageHeight="1169" math="0" shadow="0">
      <root>
        <mxCell id="0" />
        <mxCell id="1" parent="0" />
        <mxCell id="q3KDY-gtEbmNkMSWqbz6-1" value="Logo" style="ellipse;whiteSpace=wrap;html=1;" vertex="1" parent="1">
          <mxGeometry x="45" y="40" width="120" height="80" as="geometry" />
        </mxCell>
        <mxCell id="q3KDY-gtEbmNkMSWqbz6-11" value="" style="group" vertex="1" connectable="0" parent="1">
          <mxGeometry x="460" y="180" width="210" height="310" as="geometry" />
        </mxCell>
        <mxCell id="q3KDY-gtEbmNkMSWqbz6-49" value="" style="group" vertex="1" connectable="0" parent="q3KDY-gtEbmNkMSWqbz6-11">
          <mxGeometry width="210" height="310" as="geometry" />
        </mxCell>
        <mxCell id="q3KDY-gtEbmNkMSWqbz6-8" value="Picture" style="whiteSpace=wrap;html=1;aspect=fixed;" vertex="1" parent="q3KDY-gtEbmNkMSWqbz6-49">
          <mxGeometry y="50" width="210" height="210" as="geometry" />
        </mxCell>
        <mxCell id="q3KDY-gtEbmNkMSWqbz6-9" value="Necrons" style="rounded=0;whiteSpace=wrap;html=1;" vertex="1" parent="q3KDY-gtEbmNkMSWqbz6-49">
          <mxGeometry width="210" height="50" as="geometry" />
        </mxCell>
        <mxCell id="q3KDY-gtEbmNkMSWqbz6-10" value="" style="rounded=0;whiteSpace=wrap;html=1;" vertex="1" parent="q3KDY-gtEbmNkMSWqbz6-49">
          <mxGeometry y="260" width="210" height="50" as="geometry" />
        </mxCell>
        <mxCell id="q3KDY-gtEbmNkMSWqbz6-67" value="" style="group" vertex="1" connectable="0" parent="q3KDY-gtEbmNkMSWqbz6-11">
          <mxGeometry x="-230" width="210" height="310" as="geometry" />
        </mxCell>
        <mxCell id="q3KDY-gtEbmNkMSWqbz6-68" value="Picture" style="whiteSpace=wrap;html=1;aspect=fixed;" vertex="1" parent="q3KDY-gtEbmNkMSWqbz6-67">
          <mxGeometry y="50" width="210" height="210" as="geometry" />
        </mxCell>
        <mxCell id="q3KDY-gtEbmNkMSWqbz6-69" value="DeathWatch" style="rounded=0;whiteSpace=wrap;html=1;" vertex="1" parent="q3KDY-gtEbmNkMSWqbz6-67">
          <mxGeometry width="210" height="50" as="geometry" />
        </mxCell>
        <mxCell id="q3KDY-gtEbmNkMSWqbz6-70" value="" style="rounded=0;whiteSpace=wrap;html=1;" vertex="1" parent="q3KDY-gtEbmNkMSWqbz6-67">
          <mxGeometry y="260" width="210" height="50" as="geometry" />
        </mxCell>
        <mxCell id="q3KDY-gtEbmNkMSWqbz6-12" value="" style="group" vertex="1" connectable="0" parent="1">
          <mxGeometry x="690" y="180" width="210" height="310" as="geometry" />
        </mxCell>
        <mxCell id="q3KDY-gtEbmNkMSWqbz6-13" value="Picture" style="whiteSpace=wrap;html=1;aspect=fixed;" vertex="1" parent="q3KDY-gtEbmNkMSWqbz6-12">
          <mxGeometry y="50" width="210" height="210" as="geometry" />
        </mxCell>
        <mxCell id="q3KDY-gtEbmNkMSWqbz6-14" value="Orks" style="rounded=0;whiteSpace=wrap;html=1;" vertex="1" parent="q3KDY-gtEbmNkMSWqbz6-12">
          <mxGeometry width="210" height="50" as="geometry" />
        </mxCell>
        <mxCell id="q3KDY-gtEbmNkMSWqbz6-15" value="" style="rounded=0;whiteSpace=wrap;html=1;" vertex="1" parent="q3KDY-gtEbmNkMSWqbz6-12">
          <mxGeometry y="260" width="210" height="50" as="geometry" />
        </mxCell>
        <mxCell id="q3KDY-gtEbmNkMSWqbz6-21" value="" style="group" vertex="1" connectable="0" parent="1">
          <mxGeometry x="920" y="180" width="210" height="310" as="geometry" />
        </mxCell>
        <mxCell id="q3KDY-gtEbmNkMSWqbz6-22" value="Picture" style="whiteSpace=wrap;html=1;aspect=fixed;" vertex="1" parent="q3KDY-gtEbmNkMSWqbz6-21">
          <mxGeometry y="50" width="210" height="210" as="geometry" />
        </mxCell>
        <mxCell id="q3KDY-gtEbmNkMSWqbz6-23" value="GeneStealer Cults" style="rounded=0;whiteSpace=wrap;html=1;" vertex="1" parent="q3KDY-gtEbmNkMSWqbz6-21">
          <mxGeometry width="210" height="50" as="geometry" />
        </mxCell>
        <mxCell id="q3KDY-gtEbmNkMSWqbz6-24" value="" style="rounded=0;whiteSpace=wrap;html=1;" vertex="1" parent="q3KDY-gtEbmNkMSWqbz6-21">
          <mxGeometry y="260" width="210" height="50" as="geometry" />
        </mxCell>
        <mxCell id="q3KDY-gtEbmNkMSWqbz6-25" value="" style="group" vertex="1" connectable="0" parent="1">
          <mxGeometry x="1150" y="180" width="210" height="310" as="geometry" />
        </mxCell>
        <mxCell id="q3KDY-gtEbmNkMSWqbz6-26" value="Picture" style="whiteSpace=wrap;html=1;aspect=fixed;" vertex="1" parent="q3KDY-gtEbmNkMSWqbz6-25">
          <mxGeometry y="50" width="210" height="210" as="geometry" />
        </mxCell>
        <mxCell id="q3KDY-gtEbmNkMSWqbz6-27" value="Tyranids" style="rounded=0;whiteSpace=wrap;html=1;" vertex="1" parent="q3KDY-gtEbmNkMSWqbz6-25">
          <mxGeometry width="210" height="50" as="geometry" />
        </mxCell>
        <mxCell id="q3KDY-gtEbmNkMSWqbz6-28" value="" style="rounded=0;whiteSpace=wrap;html=1;" vertex="1" parent="q3KDY-gtEbmNkMSWqbz6-25">
          <mxGeometry y="260" width="210" height="50" as="geometry" />
        </mxCell>
        <mxCell id="q3KDY-gtEbmNkMSWqbz6-29" value="" style="group" vertex="1" connectable="0" parent="1">
          <mxGeometry x="1380" y="180" width="210" height="310" as="geometry" />
        </mxCell>
        <mxCell id="q3KDY-gtEbmNkMSWqbz6-30" value="Picture" style="whiteSpace=wrap;html=1;aspect=fixed;" vertex="1" parent="q3KDY-gtEbmNkMSWqbz6-29">
          <mxGeometry y="50" width="210" height="210" as="geometry" />
        </mxCell>
        <mxCell id="q3KDY-gtEbmNkMSWqbz6-31" value="Tau" style="rounded=0;whiteSpace=wrap;html=1;" vertex="1" parent="q3KDY-gtEbmNkMSWqbz6-29">
          <mxGeometry width="210" height="50" as="geometry" />
        </mxCell>
        <mxCell id="q3KDY-gtEbmNkMSWqbz6-32" value="" style="rounded=0;whiteSpace=wrap;html=1;" vertex="1" parent="q3KDY-gtEbmNkMSWqbz6-29">
          <mxGeometry y="260" width="210" height="50" as="geometry" />
        </mxCell>
        <mxCell id="q3KDY-gtEbmNkMSWqbz6-33" value="" style="group" vertex="1" connectable="0" parent="1">
          <mxGeometry x="1610" y="180" width="210" height="310" as="geometry" />
        </mxCell>
        <mxCell id="q3KDY-gtEbmNkMSWqbz6-34" value="Picture" style="whiteSpace=wrap;html=1;aspect=fixed;" vertex="1" parent="q3KDY-gtEbmNkMSWqbz6-33">
          <mxGeometry y="50" width="210" height="210" as="geometry" />
        </mxCell>
        <mxCell id="q3KDY-gtEbmNkMSWqbz6-35" value="Dark Eldar" style="rounded=0;whiteSpace=wrap;html=1;" vertex="1" parent="q3KDY-gtEbmNkMSWqbz6-33">
          <mxGeometry width="210" height="50" as="geometry" />
        </mxCell>
        <mxCell id="q3KDY-gtEbmNkMSWqbz6-36" value="" style="rounded=0;whiteSpace=wrap;html=1;" vertex="1" parent="q3KDY-gtEbmNkMSWqbz6-33">
          <mxGeometry y="260" width="210" height="50" as="geometry" />
        </mxCell>
        <mxCell id="q3KDY-gtEbmNkMSWqbz6-41" value="" style="group" vertex="1" connectable="0" parent="1">
          <mxGeometry x="1840" y="180" width="210" height="310" as="geometry" />
        </mxCell>
        <mxCell id="q3KDY-gtEbmNkMSWqbz6-42" value="Picture" style="whiteSpace=wrap;html=1;aspect=fixed;" vertex="1" parent="q3KDY-gtEbmNkMSWqbz6-41">
          <mxGeometry y="50" width="210" height="210" as="geometry" />
        </mxCell>
        <mxCell id="q3KDY-gtEbmNkMSWqbz6-43" value="Eldar" style="rounded=0;whiteSpace=wrap;html=1;" vertex="1" parent="q3KDY-gtEbmNkMSWqbz6-41">
          <mxGeometry width="210" height="50" as="geometry" />
        </mxCell>
        <mxCell id="q3KDY-gtEbmNkMSWqbz6-44" value="" style="rounded=0;whiteSpace=wrap;html=1;" vertex="1" parent="q3KDY-gtEbmNkMSWqbz6-41">
          <mxGeometry y="260" width="210" height="50" as="geometry" />
        </mxCell>
        <mxCell id="q3KDY-gtEbmNkMSWqbz6-45" value="" style="group" vertex="1" connectable="0" parent="1">
          <mxGeometry x="2070" y="180" width="210" height="310" as="geometry" />
        </mxCell>
        <mxCell id="q3KDY-gtEbmNkMSWqbz6-46" value="Picture" style="whiteSpace=wrap;html=1;aspect=fixed;" vertex="1" parent="q3KDY-gtEbmNkMSWqbz6-45">
          <mxGeometry y="50" width="210" height="210" as="geometry" />
        </mxCell>
        <mxCell id="q3KDY-gtEbmNkMSWqbz6-47" value="Leagues of Votann" style="rounded=0;whiteSpace=wrap;html=1;" vertex="1" parent="q3KDY-gtEbmNkMSWqbz6-45">
          <mxGeometry width="210" height="50" as="geometry" />
        </mxCell>
        <mxCell id="q3KDY-gtEbmNkMSWqbz6-48" value="" style="rounded=0;whiteSpace=wrap;html=1;" vertex="1" parent="q3KDY-gtEbmNkMSWqbz6-45">
          <mxGeometry y="260" width="210" height="50" as="geometry" />
        </mxCell>
        <mxCell id="q3KDY-gtEbmNkMSWqbz6-54" value="" style="group" vertex="1" connectable="0" parent="1">
          <mxGeometry x="2300" y="180" width="210" height="310" as="geometry" />
        </mxCell>
        <mxCell id="q3KDY-gtEbmNkMSWqbz6-55" value="Picture" style="whiteSpace=wrap;html=1;aspect=fixed;" vertex="1" parent="q3KDY-gtEbmNkMSWqbz6-54">
          <mxGeometry y="50" width="210" height="210" as="geometry" />
        </mxCell>
        <mxCell id="q3KDY-gtEbmNkMSWqbz6-56" value="The Chaos Threat" style="rounded=0;whiteSpace=wrap;html=1;" vertex="1" parent="q3KDY-gtEbmNkMSWqbz6-54">
          <mxGeometry width="210" height="50" as="geometry" />
        </mxCell>
        <mxCell id="q3KDY-gtEbmNkMSWqbz6-57" value="" style="rounded=0;whiteSpace=wrap;html=1;" vertex="1" parent="q3KDY-gtEbmNkMSWqbz6-54">
          <mxGeometry y="260" width="210" height="50" as="geometry" />
        </mxCell>
        <mxCell id="q3KDY-gtEbmNkMSWqbz6-50" value="" style="group" vertex="1" connectable="0" parent="1">
          <mxGeometry y="180" width="210" height="310" as="geometry" />
        </mxCell>
        <mxCell id="q3KDY-gtEbmNkMSWqbz6-51" value="Picture" style="whiteSpace=wrap;html=1;aspect=fixed;" vertex="1" parent="q3KDY-gtEbmNkMSWqbz6-50">
          <mxGeometry y="50" width="210" height="210" as="geometry" />
        </mxCell>
        <mxCell id="q3KDY-gtEbmNkMSWqbz6-52" value="Ordo Xenos Regiments" style="rounded=0;whiteSpace=wrap;html=1;" vertex="1" parent="q3KDY-gtEbmNkMSWqbz6-50">
          <mxGeometry width="210" height="50" as="geometry" />
        </mxCell>
        <mxCell id="q3KDY-gtEbmNkMSWqbz6-53" value="" style="rounded=0;whiteSpace=wrap;html=1;" vertex="1" parent="q3KDY-gtEbmNkMSWqbz6-50">
          <mxGeometry y="260" width="210" height="50" as="geometry" />
        </mxCell>
        <mxCell id="XLBI12oMfHLhvmxxT_AZ-1" value="Gallery" style="rounded=0;whiteSpace=wrap;html=1;" vertex="1" parent="1">
          <mxGeometry x="230" y="50" width="120" height="60" as="geometry" />
        </mxCell>
        <mxCell id="XLBI12oMfHLhvmxxT_AZ-2" value="Contact" style="rounded=0;whiteSpace=wrap;html=1;" vertex="1" parent="1">
          <mxGeometry x="350" y="50" width="120" height="60" as="geometry" />
        </mxCell>
      </root>
    </mxGraphModel>
  </diagram>
  <diagram id="uwJrSL-LkSlYb74Rv054" name="Regiments">
    <mxGraphModel dx="1422" dy="752" grid="1" gridSize="10" guides="1" tooltips="1" connect="1" arrows="1" fold="1" page="1" pageScale="1" pageWidth="827" pageHeight="1169" math="0" shadow="0">
      <root>
        <mxCell id="0" />
        <mxCell id="1" parent="0" />
        <mxCell id="A_G45tQ2RZ-C3DmN92_A-1" value="Logo" style="ellipse;whiteSpace=wrap;html=1;" vertex="1" parent="1">
          <mxGeometry x="45" y="40" width="120" height="80" as="geometry" />
        </mxCell>
        <mxCell id="A_G45tQ2RZ-C3DmN92_A-2" value="Gallery" style="rounded=0;whiteSpace=wrap;html=1;" vertex="1" parent="1">
          <mxGeometry x="230" y="50" width="120" height="60" as="geometry" />
        </mxCell>
        <mxCell id="A_G45tQ2RZ-C3DmN92_A-3" value="Contact" style="rounded=0;whiteSpace=wrap;html=1;" vertex="1" parent="1">
          <mxGeometry x="350" y="50" width="120" height="60" as="geometry" />
        </mxCell>
      </root>
    </mxGraphModel>
  </diagram>
  <diagram id="QZPWFghfcar4QCepPdnP" name="Death-Watch">
    <mxGraphModel dx="1422" dy="752" grid="1" gridSize="10" guides="1" tooltips="1" connect="1" arrows="1" fold="1" page="1" pageScale="1" pageWidth="827" pageHeight="1169" math="0" shadow="0">
      <root>
        <mxCell id="0" />
        <mxCell id="1" parent="0" />
      </root>
    </mxGraphModel>
  </diagram>
  <diagram id="_YplrRhVSjlhc-1wcaN9" name="Necrons">
    <mxGraphModel dx="1422" dy="752" grid="1" gridSize="10" guides="1" tooltips="1" connect="1" arrows="1" fold="1" page="1" pageScale="1" pageWidth="827" pageHeight="1169" math="0" shadow="0">
      <root>
        <mxCell id="0" />
        <mxCell id="1" parent="0" />
      </root>
    </mxGraphModel>
  </diagram>
  <diagram id="t_bLSo2snwWdjCJF4Jwj" name="Orks">
    <mxGraphModel dx="1422" dy="752" grid="1" gridSize="10" guides="1" tooltips="1" connect="1" arrows="1" fold="1" page="1" pageScale="1" pageWidth="827" pageHeight="1169" math="0" shadow="0">
      <root>
        <mxCell id="0" />
        <mxCell id="1" parent="0" />
      </root>
    </mxGraphModel>
  </diagram>
  <diagram id="rM8onOnHHnYp2XZc3v0j" name="GeneStealer Cult">
    <mxGraphModel dx="1422" dy="752" grid="1" gridSize="10" guides="1" tooltips="1" connect="1" arrows="1" fold="1" page="1" pageScale="1" pageWidth="827" pageHeight="1169" math="0" shadow="0">
      <root>
        <mxCell id="0" />
        <mxCell id="1" parent="0" />
      </root>
    </mxGraphModel>
  </diagram>
  <diagram id="8xbMQ86VRcy_fF3YSK-9" name="Tyranid">
    <mxGraphModel dx="1422" dy="752" grid="1" gridSize="10" guides="1" tooltips="1" connect="1" arrows="1" fold="1" page="1" pageScale="1" pageWidth="827" pageHeight="1169" math="0" shadow="0">
      <root>
        <mxCell id="0" />
        <mxCell id="1" parent="0" />
      </root>
    </mxGraphModel>
  </diagram>
  <diagram id="rbLPeWcxYGgDk4AKCjlM" name="Tau">
    <mxGraphModel dx="1422" dy="752" grid="1" gridSize="10" guides="1" tooltips="1" connect="1" arrows="1" fold="1" page="1" pageScale="1" pageWidth="827" pageHeight="1169" math="0" shadow="0">
      <root>
        <mxCell id="0" />
        <mxCell id="1" parent="0" />
      </root>
    </mxGraphModel>
  </diagram>
  <diagram id="Qz3qaVb9Mz2YM8fnvmaW" name="Dark-Eldar">
    <mxGraphModel dx="1422" dy="752" grid="1" gridSize="10" guides="1" tooltips="1" connect="1" arrows="1" fold="1" page="1" pageScale="1" pageWidth="827" pageHeight="1169" math="0" shadow="0">
      <root>
        <mxCell id="0" />
        <mxCell id="1" parent="0" />
      </root>
    </mxGraphModel>
  </diagram>
  <diagram id="nF81JyUDUBx6LIJAj8aY" name="Eldar">
    <mxGraphModel dx="1422" dy="752" grid="1" gridSize="10" guides="1" tooltips="1" connect="1" arrows="1" fold="1" page="1" pageScale="1" pageWidth="827" pageHeight="1169" math="0" shadow="0">
      <root>
        <mxCell id="0" />
        <mxCell id="1" parent="0" />
      </root>
    </mxGraphModel>
  </diagram>
  <diagram id="5UzHbz89erbg-oyV56-0" name="Leagues-of-Votann">
    <mxGraphModel dx="1422" dy="752" grid="1" gridSize="10" guides="1" tooltips="1" connect="1" arrows="1" fold="1" page="1" pageScale="1" pageWidth="827" pageHeight="1169" math="0" shadow="0">
      <root>
        <mxCell id="0" />
        <mxCell id="1" parent="0" />
      </root>
    </mxGraphModel>
  </diagram>
  <diagram id="utBCE_O2xhu-j4wMWtf-" name="Chaos">
    <mxGraphModel dx="1422" dy="752" grid="1" gridSize="10" guides="1" tooltips="1" connect="1" arrows="1" fold="1" page="1" pageScale="1" pageWidth="827" pageHeight="1169" math="0" shadow="0">
      <root>
        <mxCell id="0" />
        <mxCell id="1" parent="0" />
      </root>
    </mxGraphModel>
  </diagram>
  <diagram id="EA50mPoPnNn25j6Fv0wP" name="Gallery">
    <mxGraphModel dx="1422" dy="752" grid="1" gridSize="10" guides="1" tooltips="1" connect="1" arrows="1" fold="1" page="1" pageScale="1" pageWidth="827" pageHeight="1169" math="0" shadow="0">
      <root>
        <mxCell id="0" />
        <mxCell id="1" parent="0" />
      </root>
    </mxGraphModel>
  </diagram>
  <diagram id="4F_ujkvY5z1QuKu1Jw6N" name="Contact">
    <mxGraphModel dx="1422" dy="752" grid="1" gridSize="10" guides="1" tooltips="1" connect="1" arrows="1" fold="1" page="1" pageScale="1" pageWidth="827" pageHeight="1169" math="0" shadow="0">
      <root>
        <mxCell id="0" />
        <mxCell id="1" parent="0" />
      </root>
    </mxGraphModel>
  </diagram>
</mxfile>
